G75*
G70*
%OFA0B0*%
%FSLAX24Y24*%
%IPPOS*%
%LPD*%
%AMOC8*
5,1,8,0,0,1.08239X$1,22.5*
%
%ADD10C,0.0240*%
%ADD11C,0.0051*%
%ADD12C,0.0110*%
%ADD13C,0.0000*%
D10*
X000220Y000220D02*
X000220Y015968D01*
X015968Y015968D01*
X015968Y000220D01*
X000220Y000220D01*
D11*
X015968Y000220D02*
X022661Y000220D01*
X021874Y000220D02*
X021771Y001244D01*
X021748Y001244D02*
X021999Y001244D01*
X021874Y000220D01*
X021976Y001244D01*
X021925Y001244D02*
X021874Y000220D01*
X021822Y001244D01*
X021748Y001244D02*
X021874Y000220D01*
X021874Y015968D01*
X021976Y014944D01*
X021999Y014944D02*
X021874Y015968D01*
X021771Y014944D01*
X021748Y014944D02*
X021999Y014944D01*
X021925Y014944D02*
X021874Y015968D01*
X021822Y014944D01*
X021748Y014944D02*
X021874Y015968D01*
X022661Y015968D02*
X015968Y015968D01*
X015968Y019905D01*
X015968Y019118D02*
X014944Y019015D01*
X014944Y018992D02*
X015968Y019118D01*
X014944Y019220D01*
X014944Y019243D02*
X014944Y018992D01*
X014944Y019066D02*
X015968Y019118D01*
X014944Y019169D01*
X014944Y019243D02*
X015968Y019118D01*
X000220Y019118D01*
X001244Y019015D01*
X001244Y018992D02*
X000220Y019118D01*
X001244Y019220D01*
X001244Y019243D02*
X001244Y018992D01*
X001244Y019066D02*
X000220Y019118D01*
X001244Y019169D01*
X001244Y019243D02*
X000220Y019118D01*
X000220Y019905D02*
X000220Y015968D01*
D12*
X007053Y020201D02*
X007899Y020201D01*
X008321Y019778D02*
X008321Y020624D01*
X008533Y020835D01*
X008956Y020835D01*
X009167Y020624D01*
X008321Y019778D01*
X008533Y019566D01*
X008956Y019566D01*
X009167Y019778D01*
X009167Y020624D01*
X007687Y020835D02*
X007687Y019566D01*
X007053Y020201D02*
X007687Y020835D01*
X020156Y008956D02*
X020367Y009167D01*
X021213Y008321D01*
X021425Y008533D01*
X021425Y008956D01*
X021213Y009167D01*
X020367Y009167D01*
X020156Y008956D02*
X020156Y008533D01*
X020367Y008321D01*
X021213Y008321D01*
X020790Y007899D02*
X020790Y007053D01*
X020156Y007687D01*
X021425Y007687D01*
D13*
X013606Y001795D02*
X013608Y001851D01*
X013614Y001906D01*
X013624Y001960D01*
X013637Y002014D01*
X013655Y002067D01*
X013676Y002118D01*
X013700Y002168D01*
X013728Y002216D01*
X013760Y002262D01*
X013794Y002306D01*
X013832Y002347D01*
X013872Y002385D01*
X013915Y002420D01*
X013960Y002452D01*
X014008Y002481D01*
X014057Y002507D01*
X014108Y002529D01*
X014160Y002547D01*
X014214Y002561D01*
X014269Y002572D01*
X014324Y002579D01*
X014379Y002582D01*
X014435Y002581D01*
X014490Y002576D01*
X014545Y002567D01*
X014599Y002555D01*
X014652Y002538D01*
X014704Y002518D01*
X014754Y002494D01*
X014802Y002467D01*
X014849Y002437D01*
X014893Y002403D01*
X014935Y002366D01*
X014973Y002326D01*
X015010Y002284D01*
X015043Y002239D01*
X015072Y002193D01*
X015099Y002144D01*
X015121Y002093D01*
X015141Y002041D01*
X015156Y001987D01*
X015168Y001933D01*
X015176Y001878D01*
X015180Y001823D01*
X015180Y001767D01*
X015176Y001712D01*
X015168Y001657D01*
X015156Y001603D01*
X015141Y001549D01*
X015121Y001497D01*
X015099Y001446D01*
X015072Y001397D01*
X015043Y001351D01*
X015010Y001306D01*
X014973Y001264D01*
X014935Y001224D01*
X014893Y001187D01*
X014849Y001153D01*
X014802Y001123D01*
X014754Y001096D01*
X014704Y001072D01*
X014652Y001052D01*
X014599Y001035D01*
X014545Y001023D01*
X014490Y001014D01*
X014435Y001009D01*
X014379Y001008D01*
X014324Y001011D01*
X014269Y001018D01*
X014214Y001029D01*
X014160Y001043D01*
X014108Y001061D01*
X014057Y001083D01*
X014008Y001109D01*
X013960Y001138D01*
X013915Y001170D01*
X013872Y001205D01*
X013832Y001243D01*
X013794Y001284D01*
X013760Y001328D01*
X013728Y001374D01*
X013700Y001422D01*
X013676Y001472D01*
X013655Y001523D01*
X013637Y001576D01*
X013624Y001630D01*
X013614Y001684D01*
X013608Y001739D01*
X013606Y001795D01*
X001008Y001795D02*
X001010Y001851D01*
X001016Y001906D01*
X001026Y001960D01*
X001039Y002014D01*
X001057Y002067D01*
X001078Y002118D01*
X001102Y002168D01*
X001130Y002216D01*
X001162Y002262D01*
X001196Y002306D01*
X001234Y002347D01*
X001274Y002385D01*
X001317Y002420D01*
X001362Y002452D01*
X001410Y002481D01*
X001459Y002507D01*
X001510Y002529D01*
X001562Y002547D01*
X001616Y002561D01*
X001671Y002572D01*
X001726Y002579D01*
X001781Y002582D01*
X001837Y002581D01*
X001892Y002576D01*
X001947Y002567D01*
X002001Y002555D01*
X002054Y002538D01*
X002106Y002518D01*
X002156Y002494D01*
X002204Y002467D01*
X002251Y002437D01*
X002295Y002403D01*
X002337Y002366D01*
X002375Y002326D01*
X002412Y002284D01*
X002445Y002239D01*
X002474Y002193D01*
X002501Y002144D01*
X002523Y002093D01*
X002543Y002041D01*
X002558Y001987D01*
X002570Y001933D01*
X002578Y001878D01*
X002582Y001823D01*
X002582Y001767D01*
X002578Y001712D01*
X002570Y001657D01*
X002558Y001603D01*
X002543Y001549D01*
X002523Y001497D01*
X002501Y001446D01*
X002474Y001397D01*
X002445Y001351D01*
X002412Y001306D01*
X002375Y001264D01*
X002337Y001224D01*
X002295Y001187D01*
X002251Y001153D01*
X002204Y001123D01*
X002156Y001096D01*
X002106Y001072D01*
X002054Y001052D01*
X002001Y001035D01*
X001947Y001023D01*
X001892Y001014D01*
X001837Y001009D01*
X001781Y001008D01*
X001726Y001011D01*
X001671Y001018D01*
X001616Y001029D01*
X001562Y001043D01*
X001510Y001061D01*
X001459Y001083D01*
X001410Y001109D01*
X001362Y001138D01*
X001317Y001170D01*
X001274Y001205D01*
X001234Y001243D01*
X001196Y001284D01*
X001162Y001328D01*
X001130Y001374D01*
X001102Y001422D01*
X001078Y001472D01*
X001057Y001523D01*
X001039Y001576D01*
X001026Y001630D01*
X001016Y001684D01*
X001010Y001739D01*
X001008Y001795D01*
X001008Y014393D02*
X001010Y014449D01*
X001016Y014504D01*
X001026Y014558D01*
X001039Y014612D01*
X001057Y014665D01*
X001078Y014716D01*
X001102Y014766D01*
X001130Y014814D01*
X001162Y014860D01*
X001196Y014904D01*
X001234Y014945D01*
X001274Y014983D01*
X001317Y015018D01*
X001362Y015050D01*
X001410Y015079D01*
X001459Y015105D01*
X001510Y015127D01*
X001562Y015145D01*
X001616Y015159D01*
X001671Y015170D01*
X001726Y015177D01*
X001781Y015180D01*
X001837Y015179D01*
X001892Y015174D01*
X001947Y015165D01*
X002001Y015153D01*
X002054Y015136D01*
X002106Y015116D01*
X002156Y015092D01*
X002204Y015065D01*
X002251Y015035D01*
X002295Y015001D01*
X002337Y014964D01*
X002375Y014924D01*
X002412Y014882D01*
X002445Y014837D01*
X002474Y014791D01*
X002501Y014742D01*
X002523Y014691D01*
X002543Y014639D01*
X002558Y014585D01*
X002570Y014531D01*
X002578Y014476D01*
X002582Y014421D01*
X002582Y014365D01*
X002578Y014310D01*
X002570Y014255D01*
X002558Y014201D01*
X002543Y014147D01*
X002523Y014095D01*
X002501Y014044D01*
X002474Y013995D01*
X002445Y013949D01*
X002412Y013904D01*
X002375Y013862D01*
X002337Y013822D01*
X002295Y013785D01*
X002251Y013751D01*
X002204Y013721D01*
X002156Y013694D01*
X002106Y013670D01*
X002054Y013650D01*
X002001Y013633D01*
X001947Y013621D01*
X001892Y013612D01*
X001837Y013607D01*
X001781Y013606D01*
X001726Y013609D01*
X001671Y013616D01*
X001616Y013627D01*
X001562Y013641D01*
X001510Y013659D01*
X001459Y013681D01*
X001410Y013707D01*
X001362Y013736D01*
X001317Y013768D01*
X001274Y013803D01*
X001234Y013841D01*
X001196Y013882D01*
X001162Y013926D01*
X001130Y013972D01*
X001102Y014020D01*
X001078Y014070D01*
X001057Y014121D01*
X001039Y014174D01*
X001026Y014228D01*
X001016Y014282D01*
X001010Y014337D01*
X001008Y014393D01*
X013606Y014393D02*
X013608Y014449D01*
X013614Y014504D01*
X013624Y014558D01*
X013637Y014612D01*
X013655Y014665D01*
X013676Y014716D01*
X013700Y014766D01*
X013728Y014814D01*
X013760Y014860D01*
X013794Y014904D01*
X013832Y014945D01*
X013872Y014983D01*
X013915Y015018D01*
X013960Y015050D01*
X014008Y015079D01*
X014057Y015105D01*
X014108Y015127D01*
X014160Y015145D01*
X014214Y015159D01*
X014269Y015170D01*
X014324Y015177D01*
X014379Y015180D01*
X014435Y015179D01*
X014490Y015174D01*
X014545Y015165D01*
X014599Y015153D01*
X014652Y015136D01*
X014704Y015116D01*
X014754Y015092D01*
X014802Y015065D01*
X014849Y015035D01*
X014893Y015001D01*
X014935Y014964D01*
X014973Y014924D01*
X015010Y014882D01*
X015043Y014837D01*
X015072Y014791D01*
X015099Y014742D01*
X015121Y014691D01*
X015141Y014639D01*
X015156Y014585D01*
X015168Y014531D01*
X015176Y014476D01*
X015180Y014421D01*
X015180Y014365D01*
X015176Y014310D01*
X015168Y014255D01*
X015156Y014201D01*
X015141Y014147D01*
X015121Y014095D01*
X015099Y014044D01*
X015072Y013995D01*
X015043Y013949D01*
X015010Y013904D01*
X014973Y013862D01*
X014935Y013822D01*
X014893Y013785D01*
X014849Y013751D01*
X014802Y013721D01*
X014754Y013694D01*
X014704Y013670D01*
X014652Y013650D01*
X014599Y013633D01*
X014545Y013621D01*
X014490Y013612D01*
X014435Y013607D01*
X014379Y013606D01*
X014324Y013609D01*
X014269Y013616D01*
X014214Y013627D01*
X014160Y013641D01*
X014108Y013659D01*
X014057Y013681D01*
X014008Y013707D01*
X013960Y013736D01*
X013915Y013768D01*
X013872Y013803D01*
X013832Y013841D01*
X013794Y013882D01*
X013760Y013926D01*
X013728Y013972D01*
X013700Y014020D01*
X013676Y014070D01*
X013655Y014121D01*
X013637Y014174D01*
X013624Y014228D01*
X013614Y014282D01*
X013608Y014337D01*
X013606Y014393D01*
M02*
