G75*
G70*
%OFA0B0*%
%FSLAX24Y24*%
%IPPOS*%
%LPD*%
%AMOC8*
5,1,8,0,0,1.08239X$1,22.5*
%
%ADD10C,0.0240*%
%ADD11C,0.0051*%
%ADD12C,0.0110*%
%ADD13C,0.0000*%
%ADD14R,0.0472X0.0120*%
%ADD15C,0.0600*%
%ADD16R,0.0394X0.0433*%
%ADD17C,0.0120*%
%ADD18C,0.0160*%
%ADD19C,0.0100*%
D10*
X000220Y000220D02*
X000220Y015968D01*
X015968Y015968D01*
X015968Y000220D01*
X000220Y000220D01*
D11*
X015968Y000220D02*
X022661Y000220D01*
X021874Y000220D02*
X021771Y001244D01*
X021748Y001244D02*
X021999Y001244D01*
X021874Y000220D01*
X021976Y001244D01*
X021925Y001244D02*
X021874Y000220D01*
X021822Y001244D01*
X021748Y001244D02*
X021874Y000220D01*
X021874Y015968D01*
X021976Y014944D01*
X021999Y014944D02*
X021874Y015968D01*
X021771Y014944D01*
X021748Y014944D02*
X021999Y014944D01*
X021925Y014944D02*
X021874Y015968D01*
X021822Y014944D01*
X021748Y014944D02*
X021874Y015968D01*
X022661Y015968D02*
X015968Y015968D01*
X015968Y019905D01*
X015968Y019118D02*
X014944Y019015D01*
X014944Y018992D02*
X015968Y019118D01*
X014944Y019220D01*
X014944Y019243D02*
X014944Y018992D01*
X014944Y019066D02*
X015968Y019118D01*
X014944Y019169D01*
X014944Y019243D02*
X015968Y019118D01*
X000220Y019118D01*
X001244Y019015D01*
X001244Y018992D02*
X000220Y019118D01*
X001244Y019220D01*
X001244Y019243D02*
X001244Y018992D01*
X001244Y019066D02*
X000220Y019118D01*
X001244Y019169D01*
X001244Y019243D02*
X000220Y019118D01*
X000220Y019905D02*
X000220Y015968D01*
D12*
X007053Y020201D02*
X007899Y020201D01*
X008321Y019778D02*
X008321Y020624D01*
X008533Y020835D01*
X008956Y020835D01*
X009167Y020624D01*
X008321Y019778D01*
X008533Y019566D01*
X008956Y019566D01*
X009167Y019778D01*
X009167Y020624D01*
X007687Y020835D02*
X007687Y019566D01*
X007053Y020201D02*
X007687Y020835D01*
X020156Y008956D02*
X020367Y009167D01*
X021213Y008321D01*
X021425Y008533D01*
X021425Y008956D01*
X021213Y009167D01*
X020367Y009167D01*
X020156Y008956D02*
X020156Y008533D01*
X020367Y008321D01*
X021213Y008321D01*
X020790Y007899D02*
X020790Y007053D01*
X020156Y007687D01*
X021425Y007687D01*
D13*
X013606Y001795D02*
X013608Y001851D01*
X013614Y001906D01*
X013624Y001960D01*
X013637Y002014D01*
X013655Y002067D01*
X013676Y002118D01*
X013700Y002168D01*
X013728Y002216D01*
X013760Y002262D01*
X013794Y002306D01*
X013832Y002347D01*
X013872Y002385D01*
X013915Y002420D01*
X013960Y002452D01*
X014008Y002481D01*
X014057Y002507D01*
X014108Y002529D01*
X014160Y002547D01*
X014214Y002561D01*
X014269Y002572D01*
X014324Y002579D01*
X014379Y002582D01*
X014435Y002581D01*
X014490Y002576D01*
X014545Y002567D01*
X014599Y002555D01*
X014652Y002538D01*
X014704Y002518D01*
X014754Y002494D01*
X014802Y002467D01*
X014849Y002437D01*
X014893Y002403D01*
X014935Y002366D01*
X014973Y002326D01*
X015010Y002284D01*
X015043Y002239D01*
X015072Y002193D01*
X015099Y002144D01*
X015121Y002093D01*
X015141Y002041D01*
X015156Y001987D01*
X015168Y001933D01*
X015176Y001878D01*
X015180Y001823D01*
X015180Y001767D01*
X015176Y001712D01*
X015168Y001657D01*
X015156Y001603D01*
X015141Y001549D01*
X015121Y001497D01*
X015099Y001446D01*
X015072Y001397D01*
X015043Y001351D01*
X015010Y001306D01*
X014973Y001264D01*
X014935Y001224D01*
X014893Y001187D01*
X014849Y001153D01*
X014802Y001123D01*
X014754Y001096D01*
X014704Y001072D01*
X014652Y001052D01*
X014599Y001035D01*
X014545Y001023D01*
X014490Y001014D01*
X014435Y001009D01*
X014379Y001008D01*
X014324Y001011D01*
X014269Y001018D01*
X014214Y001029D01*
X014160Y001043D01*
X014108Y001061D01*
X014057Y001083D01*
X014008Y001109D01*
X013960Y001138D01*
X013915Y001170D01*
X013872Y001205D01*
X013832Y001243D01*
X013794Y001284D01*
X013760Y001328D01*
X013728Y001374D01*
X013700Y001422D01*
X013676Y001472D01*
X013655Y001523D01*
X013637Y001576D01*
X013624Y001630D01*
X013614Y001684D01*
X013608Y001739D01*
X013606Y001795D01*
X001008Y001795D02*
X001010Y001851D01*
X001016Y001906D01*
X001026Y001960D01*
X001039Y002014D01*
X001057Y002067D01*
X001078Y002118D01*
X001102Y002168D01*
X001130Y002216D01*
X001162Y002262D01*
X001196Y002306D01*
X001234Y002347D01*
X001274Y002385D01*
X001317Y002420D01*
X001362Y002452D01*
X001410Y002481D01*
X001459Y002507D01*
X001510Y002529D01*
X001562Y002547D01*
X001616Y002561D01*
X001671Y002572D01*
X001726Y002579D01*
X001781Y002582D01*
X001837Y002581D01*
X001892Y002576D01*
X001947Y002567D01*
X002001Y002555D01*
X002054Y002538D01*
X002106Y002518D01*
X002156Y002494D01*
X002204Y002467D01*
X002251Y002437D01*
X002295Y002403D01*
X002337Y002366D01*
X002375Y002326D01*
X002412Y002284D01*
X002445Y002239D01*
X002474Y002193D01*
X002501Y002144D01*
X002523Y002093D01*
X002543Y002041D01*
X002558Y001987D01*
X002570Y001933D01*
X002578Y001878D01*
X002582Y001823D01*
X002582Y001767D01*
X002578Y001712D01*
X002570Y001657D01*
X002558Y001603D01*
X002543Y001549D01*
X002523Y001497D01*
X002501Y001446D01*
X002474Y001397D01*
X002445Y001351D01*
X002412Y001306D01*
X002375Y001264D01*
X002337Y001224D01*
X002295Y001187D01*
X002251Y001153D01*
X002204Y001123D01*
X002156Y001096D01*
X002106Y001072D01*
X002054Y001052D01*
X002001Y001035D01*
X001947Y001023D01*
X001892Y001014D01*
X001837Y001009D01*
X001781Y001008D01*
X001726Y001011D01*
X001671Y001018D01*
X001616Y001029D01*
X001562Y001043D01*
X001510Y001061D01*
X001459Y001083D01*
X001410Y001109D01*
X001362Y001138D01*
X001317Y001170D01*
X001274Y001205D01*
X001234Y001243D01*
X001196Y001284D01*
X001162Y001328D01*
X001130Y001374D01*
X001102Y001422D01*
X001078Y001472D01*
X001057Y001523D01*
X001039Y001576D01*
X001026Y001630D01*
X001016Y001684D01*
X001010Y001739D01*
X001008Y001795D01*
X001008Y014393D02*
X001010Y014449D01*
X001016Y014504D01*
X001026Y014558D01*
X001039Y014612D01*
X001057Y014665D01*
X001078Y014716D01*
X001102Y014766D01*
X001130Y014814D01*
X001162Y014860D01*
X001196Y014904D01*
X001234Y014945D01*
X001274Y014983D01*
X001317Y015018D01*
X001362Y015050D01*
X001410Y015079D01*
X001459Y015105D01*
X001510Y015127D01*
X001562Y015145D01*
X001616Y015159D01*
X001671Y015170D01*
X001726Y015177D01*
X001781Y015180D01*
X001837Y015179D01*
X001892Y015174D01*
X001947Y015165D01*
X002001Y015153D01*
X002054Y015136D01*
X002106Y015116D01*
X002156Y015092D01*
X002204Y015065D01*
X002251Y015035D01*
X002295Y015001D01*
X002337Y014964D01*
X002375Y014924D01*
X002412Y014882D01*
X002445Y014837D01*
X002474Y014791D01*
X002501Y014742D01*
X002523Y014691D01*
X002543Y014639D01*
X002558Y014585D01*
X002570Y014531D01*
X002578Y014476D01*
X002582Y014421D01*
X002582Y014365D01*
X002578Y014310D01*
X002570Y014255D01*
X002558Y014201D01*
X002543Y014147D01*
X002523Y014095D01*
X002501Y014044D01*
X002474Y013995D01*
X002445Y013949D01*
X002412Y013904D01*
X002375Y013862D01*
X002337Y013822D01*
X002295Y013785D01*
X002251Y013751D01*
X002204Y013721D01*
X002156Y013694D01*
X002106Y013670D01*
X002054Y013650D01*
X002001Y013633D01*
X001947Y013621D01*
X001892Y013612D01*
X001837Y013607D01*
X001781Y013606D01*
X001726Y013609D01*
X001671Y013616D01*
X001616Y013627D01*
X001562Y013641D01*
X001510Y013659D01*
X001459Y013681D01*
X001410Y013707D01*
X001362Y013736D01*
X001317Y013768D01*
X001274Y013803D01*
X001234Y013841D01*
X001196Y013882D01*
X001162Y013926D01*
X001130Y013972D01*
X001102Y014020D01*
X001078Y014070D01*
X001057Y014121D01*
X001039Y014174D01*
X001026Y014228D01*
X001016Y014282D01*
X001010Y014337D01*
X001008Y014393D01*
X013606Y014393D02*
X013608Y014449D01*
X013614Y014504D01*
X013624Y014558D01*
X013637Y014612D01*
X013655Y014665D01*
X013676Y014716D01*
X013700Y014766D01*
X013728Y014814D01*
X013760Y014860D01*
X013794Y014904D01*
X013832Y014945D01*
X013872Y014983D01*
X013915Y015018D01*
X013960Y015050D01*
X014008Y015079D01*
X014057Y015105D01*
X014108Y015127D01*
X014160Y015145D01*
X014214Y015159D01*
X014269Y015170D01*
X014324Y015177D01*
X014379Y015180D01*
X014435Y015179D01*
X014490Y015174D01*
X014545Y015165D01*
X014599Y015153D01*
X014652Y015136D01*
X014704Y015116D01*
X014754Y015092D01*
X014802Y015065D01*
X014849Y015035D01*
X014893Y015001D01*
X014935Y014964D01*
X014973Y014924D01*
X015010Y014882D01*
X015043Y014837D01*
X015072Y014791D01*
X015099Y014742D01*
X015121Y014691D01*
X015141Y014639D01*
X015156Y014585D01*
X015168Y014531D01*
X015176Y014476D01*
X015180Y014421D01*
X015180Y014365D01*
X015176Y014310D01*
X015168Y014255D01*
X015156Y014201D01*
X015141Y014147D01*
X015121Y014095D01*
X015099Y014044D01*
X015072Y013995D01*
X015043Y013949D01*
X015010Y013904D01*
X014973Y013862D01*
X014935Y013822D01*
X014893Y013785D01*
X014849Y013751D01*
X014802Y013721D01*
X014754Y013694D01*
X014704Y013670D01*
X014652Y013650D01*
X014599Y013633D01*
X014545Y013621D01*
X014490Y013612D01*
X014435Y013607D01*
X014379Y013606D01*
X014324Y013609D01*
X014269Y013616D01*
X014214Y013627D01*
X014160Y013641D01*
X014108Y013659D01*
X014057Y013681D01*
X014008Y013707D01*
X013960Y013736D01*
X013915Y013768D01*
X013872Y013803D01*
X013832Y013841D01*
X013794Y013882D01*
X013760Y013926D01*
X013728Y013972D01*
X013700Y014020D01*
X013676Y014070D01*
X013655Y014121D01*
X013637Y014174D01*
X013624Y014228D01*
X013614Y014282D01*
X013608Y014337D01*
X013606Y014393D01*
D14*
X009275Y008862D03*
X009275Y008606D03*
X009275Y008350D03*
X009275Y008094D03*
X009275Y007838D03*
X009275Y007582D03*
X009275Y007326D03*
X006913Y007326D03*
X006913Y007582D03*
X006913Y007838D03*
X006913Y008094D03*
X006913Y008350D03*
X006913Y008606D03*
X006913Y008862D03*
D15*
X006594Y013700D02*
X006594Y014300D01*
X005594Y014300D02*
X005594Y013700D01*
X007594Y013700D02*
X007594Y014300D01*
X008594Y014300D02*
X008594Y013700D01*
X009594Y013700D02*
X009594Y014300D01*
X010594Y014300D02*
X010594Y013700D01*
X010594Y002489D02*
X010594Y001889D01*
X009594Y001889D02*
X009594Y002489D01*
X008594Y002489D02*
X008594Y001889D01*
X007594Y001889D02*
X007594Y002489D01*
X006594Y002489D02*
X006594Y001889D01*
X005594Y001889D02*
X005594Y002489D01*
D16*
X005583Y004667D03*
X006252Y004667D03*
X005502Y006807D03*
X005502Y007476D03*
X005505Y008093D03*
X005505Y008763D03*
D17*
X006264Y007838D02*
X005886Y007459D01*
X005518Y007459D01*
X005502Y007476D01*
X006264Y007838D02*
X006913Y007838D01*
X006913Y007326D02*
X007651Y007326D01*
X007800Y007475D01*
X007800Y008860D01*
X006109Y010551D01*
X006109Y014541D01*
X006319Y014751D01*
X008470Y014751D01*
X008588Y014633D01*
X008588Y014006D01*
X008594Y014000D01*
X007596Y013997D02*
X007594Y014000D01*
X007596Y013997D02*
X007596Y010467D01*
X008851Y009212D01*
X009613Y009212D01*
X009799Y009027D01*
X009799Y008740D01*
X009665Y008606D01*
X009275Y008606D01*
X009275Y008862D02*
X008392Y008862D01*
X006594Y010659D01*
X006594Y013999D01*
X006594Y014000D01*
X009879Y008367D02*
X009862Y008350D01*
X009275Y008350D01*
X008573Y008350D01*
X008569Y008354D01*
X008930Y007580D02*
X009273Y007580D01*
X009275Y007582D01*
X009275Y007326D02*
X009275Y007326D01*
X009564Y007326D01*
X009594Y007296D01*
X009594Y002189D01*
X010107Y001687D02*
X010107Y007548D01*
X009817Y007838D01*
X009275Y007838D01*
X008930Y007580D02*
X008823Y007474D01*
X008823Y004763D01*
X008510Y004450D01*
X007865Y004450D01*
X007595Y004180D01*
X007595Y002189D01*
X007594Y002189D01*
X008594Y002189D02*
X008594Y001537D01*
X008691Y001440D01*
X009860Y001440D01*
X010107Y001687D01*
X006253Y004666D02*
X006252Y004667D01*
D18*
X006649Y004438D02*
X007485Y004438D01*
X007374Y004327D01*
X007335Y004232D01*
X007335Y002922D01*
X007311Y002912D01*
X007170Y002772D01*
X007094Y002588D01*
X007094Y001789D01*
X007094Y002588D01*
X007018Y002772D01*
X006877Y002912D01*
X006693Y002989D01*
X006495Y002989D01*
X006311Y002912D01*
X006170Y002772D01*
X006094Y002588D01*
X006018Y002772D01*
X005877Y002912D01*
X005874Y002914D01*
X005874Y004262D01*
X005917Y004305D01*
X005972Y004250D01*
X006532Y004250D01*
X006649Y004367D01*
X006649Y004438D01*
X006623Y004341D02*
X007388Y004341D01*
X007335Y004183D02*
X005874Y004183D01*
X005874Y004024D02*
X007335Y004024D01*
X007335Y003866D02*
X005874Y003866D01*
X005874Y003707D02*
X007335Y003707D01*
X007335Y003549D02*
X005874Y003549D01*
X005874Y003390D02*
X007335Y003390D01*
X007335Y003232D02*
X005874Y003232D01*
X005874Y003073D02*
X007335Y003073D01*
X007316Y002915D02*
X006872Y002915D01*
X007024Y002756D02*
X007164Y002756D01*
X007098Y002598D02*
X007090Y002598D01*
X007094Y002439D02*
X007094Y002439D01*
X007094Y002281D02*
X007094Y002281D01*
X007094Y002122D02*
X007094Y002122D01*
X007094Y001964D02*
X007094Y001964D01*
X007094Y001805D02*
X007094Y001805D01*
X007094Y001789D02*
X007170Y001605D01*
X007311Y001465D01*
X007495Y001389D01*
X007693Y001389D01*
X007877Y001465D01*
X008018Y001605D01*
X008094Y001789D01*
X008094Y002588D01*
X008170Y002772D01*
X008311Y002912D01*
X008495Y002989D01*
X008693Y002989D01*
X008877Y002912D01*
X009018Y002772D01*
X009094Y002588D01*
X009094Y001789D01*
X009057Y001700D01*
X009131Y001700D01*
X009094Y001789D01*
X009094Y002588D01*
X009170Y002772D01*
X009311Y002912D01*
X009334Y002922D01*
X009334Y007066D01*
X009224Y007066D01*
X009223Y007066D01*
X009083Y007066D01*
X009083Y004712D01*
X009044Y004616D01*
X008971Y004543D01*
X008657Y004230D01*
X008562Y004190D01*
X007973Y004190D01*
X007855Y004072D01*
X007855Y002922D01*
X007877Y002912D01*
X008018Y002772D01*
X008094Y002588D01*
X008094Y001789D01*
X008170Y001605D01*
X008311Y001465D01*
X008349Y001449D01*
X008374Y001389D01*
X008543Y001220D01*
X008639Y001180D01*
X009912Y001180D01*
X010007Y001220D01*
X010254Y001466D01*
X010327Y001539D01*
X010367Y001635D01*
X010367Y007600D01*
X010327Y007696D01*
X009964Y008059D01*
X009868Y008098D01*
X009711Y008098D01*
X009711Y008237D01*
X009602Y008346D01*
X009717Y008346D01*
X009812Y008385D01*
X009946Y008519D01*
X010019Y008592D01*
X010059Y008688D01*
X010059Y009078D01*
X010019Y009174D01*
X009946Y009247D01*
X009834Y009359D01*
X009834Y009359D01*
X009761Y009432D01*
X009665Y009472D01*
X008959Y009472D01*
X007856Y010574D01*
X007856Y013267D01*
X007877Y013276D01*
X008018Y013416D01*
X008094Y013600D01*
X008170Y013416D01*
X008311Y013276D01*
X008495Y013200D01*
X008693Y013200D01*
X008877Y013276D01*
X009018Y013416D01*
X009094Y013600D01*
X009094Y014399D01*
X009018Y014583D01*
X008877Y014723D01*
X008822Y014746D01*
X008808Y014781D01*
X008735Y014854D01*
X008617Y014972D01*
X008521Y015011D01*
X006267Y015011D01*
X006171Y014972D01*
X006098Y014899D01*
X005900Y014700D01*
X005877Y014723D01*
X005693Y014800D01*
X005495Y014800D01*
X005311Y014723D01*
X005170Y014583D01*
X005094Y014399D01*
X005094Y013600D01*
X005170Y013416D01*
X005311Y013276D01*
X005314Y013274D01*
X005314Y009854D01*
X004914Y009454D01*
X004835Y009375D01*
X004793Y009272D01*
X004793Y008155D01*
X004790Y008150D01*
X004790Y008038D01*
X004793Y008033D01*
X004793Y004762D01*
X004835Y004660D01*
X004914Y004581D01*
X005066Y004429D01*
X005169Y004387D01*
X005186Y004387D01*
X005186Y004367D01*
X005303Y004250D01*
X005314Y004250D01*
X005314Y002914D01*
X005311Y002912D01*
X005170Y002772D01*
X005094Y002588D01*
X005094Y001789D01*
X005170Y001605D01*
X005311Y001465D01*
X005495Y001389D01*
X005693Y001389D01*
X005877Y001465D01*
X006018Y001605D01*
X006094Y001789D01*
X006094Y002588D01*
X006094Y001789D01*
X006170Y001605D01*
X006311Y001465D01*
X006495Y001389D01*
X006693Y001389D01*
X006877Y001465D01*
X007018Y001605D01*
X007094Y001789D01*
X007035Y001647D02*
X007153Y001647D01*
X007287Y001488D02*
X006901Y001488D01*
X006287Y001488D02*
X005901Y001488D01*
X006035Y001647D02*
X006153Y001647D01*
X006094Y001805D02*
X006094Y001805D01*
X006094Y001964D02*
X006094Y001964D01*
X006094Y002122D02*
X006094Y002122D01*
X006094Y002281D02*
X006094Y002281D01*
X006094Y002439D02*
X006094Y002439D01*
X006090Y002598D02*
X006098Y002598D01*
X006164Y002756D02*
X006024Y002756D01*
X005874Y002915D02*
X006316Y002915D01*
X005594Y002189D02*
X005594Y004655D01*
X005583Y004667D01*
X005224Y004667D01*
X005073Y004818D01*
X005073Y008092D01*
X005073Y008092D01*
X005073Y009217D01*
X005594Y009738D01*
X005594Y014000D01*
X005094Y014010D02*
X003004Y014010D01*
X002976Y013904D02*
X003062Y014226D01*
X003062Y014560D01*
X002976Y014882D01*
X002809Y015171D01*
X002612Y015368D01*
X013576Y015368D01*
X013379Y015171D01*
X013212Y014882D01*
X013126Y014560D01*
X013126Y014226D01*
X013212Y013904D01*
X013379Y013615D01*
X013615Y013379D01*
X013904Y013212D01*
X014226Y013126D01*
X014560Y013126D01*
X014882Y013212D01*
X015171Y013379D01*
X015368Y013576D01*
X015368Y002612D01*
X015171Y002809D01*
X014882Y002976D01*
X014560Y003062D01*
X014226Y003062D01*
X013904Y002976D01*
X013615Y002809D01*
X013379Y002573D01*
X013212Y002284D01*
X013126Y001962D01*
X013126Y001628D01*
X013212Y001306D01*
X013379Y001017D01*
X013576Y000820D01*
X002612Y000820D01*
X002809Y001017D01*
X002976Y001306D01*
X003062Y001628D01*
X003062Y001962D01*
X002976Y002284D01*
X002809Y002573D01*
X002573Y002809D01*
X002284Y002976D01*
X001962Y003062D01*
X001628Y003062D01*
X001306Y002976D01*
X001017Y002809D01*
X000820Y002612D01*
X000820Y013576D01*
X001017Y013379D01*
X001306Y013212D01*
X001628Y013126D01*
X001962Y013126D01*
X002284Y013212D01*
X002573Y013379D01*
X002809Y013615D01*
X002976Y013904D01*
X002945Y013851D02*
X005094Y013851D01*
X005094Y013693D02*
X002854Y013693D01*
X002728Y013534D02*
X005121Y013534D01*
X005211Y013376D02*
X002567Y013376D01*
X002292Y013217D02*
X005314Y013217D01*
X005314Y013059D02*
X000820Y013059D01*
X000820Y013217D02*
X001297Y013217D01*
X001023Y013376D02*
X000820Y013376D01*
X000820Y013534D02*
X000862Y013534D01*
X000820Y012900D02*
X005314Y012900D01*
X005314Y012742D02*
X000820Y012742D01*
X000820Y012583D02*
X005314Y012583D01*
X005314Y012425D02*
X000820Y012425D01*
X000820Y012266D02*
X005314Y012266D01*
X005314Y012108D02*
X000820Y012108D01*
X000820Y011949D02*
X005314Y011949D01*
X005314Y011791D02*
X000820Y011791D01*
X000820Y011632D02*
X005314Y011632D01*
X005314Y011474D02*
X000820Y011474D01*
X000820Y011315D02*
X005314Y011315D01*
X005314Y011157D02*
X000820Y011157D01*
X000820Y010998D02*
X005314Y010998D01*
X005314Y010840D02*
X000820Y010840D01*
X000820Y010681D02*
X005314Y010681D01*
X005314Y010523D02*
X000820Y010523D01*
X000820Y010364D02*
X005314Y010364D01*
X005314Y010206D02*
X000820Y010206D01*
X000820Y010047D02*
X005314Y010047D01*
X005314Y009889D02*
X000820Y009889D01*
X000820Y009730D02*
X005190Y009730D01*
X005031Y009572D02*
X000820Y009572D01*
X000820Y009413D02*
X004873Y009413D01*
X004793Y009255D02*
X000820Y009255D01*
X000820Y009096D02*
X004793Y009096D01*
X004793Y008938D02*
X000820Y008938D01*
X000820Y008779D02*
X004793Y008779D01*
X004793Y008621D02*
X000820Y008621D01*
X000820Y008462D02*
X004793Y008462D01*
X004793Y008304D02*
X000820Y008304D01*
X000820Y008145D02*
X004790Y008145D01*
X004793Y007987D02*
X000820Y007987D01*
X000820Y007828D02*
X004793Y007828D01*
X004793Y007670D02*
X000820Y007670D01*
X000820Y007511D02*
X004793Y007511D01*
X004793Y007353D02*
X000820Y007353D01*
X000820Y007194D02*
X004793Y007194D01*
X004793Y007036D02*
X000820Y007036D01*
X000820Y006877D02*
X004793Y006877D01*
X004793Y006719D02*
X000820Y006719D01*
X000820Y006560D02*
X004793Y006560D01*
X004793Y006402D02*
X000820Y006402D01*
X000820Y006243D02*
X004793Y006243D01*
X004793Y006085D02*
X000820Y006085D01*
X000820Y005926D02*
X004793Y005926D01*
X004793Y005768D02*
X000820Y005768D01*
X000820Y005609D02*
X004793Y005609D01*
X004793Y005451D02*
X000820Y005451D01*
X000820Y005292D02*
X004793Y005292D01*
X004793Y005134D02*
X000820Y005134D01*
X000820Y004975D02*
X004793Y004975D01*
X004793Y004817D02*
X000820Y004817D01*
X000820Y004658D02*
X004837Y004658D01*
X004995Y004500D02*
X000820Y004500D01*
X000820Y004341D02*
X005212Y004341D01*
X005314Y004183D02*
X000820Y004183D01*
X000820Y004024D02*
X005314Y004024D01*
X005314Y003866D02*
X000820Y003866D01*
X000820Y003707D02*
X005314Y003707D01*
X005314Y003549D02*
X000820Y003549D01*
X000820Y003390D02*
X005314Y003390D01*
X005314Y003232D02*
X000820Y003232D01*
X000820Y003073D02*
X005314Y003073D01*
X005314Y002915D02*
X002390Y002915D01*
X002626Y002756D02*
X005164Y002756D01*
X005098Y002598D02*
X002784Y002598D01*
X002886Y002439D02*
X005094Y002439D01*
X005094Y002281D02*
X002977Y002281D01*
X003019Y002122D02*
X005094Y002122D01*
X005094Y001964D02*
X003062Y001964D01*
X003062Y001805D02*
X005094Y001805D01*
X005153Y001647D02*
X003062Y001647D01*
X003025Y001488D02*
X005287Y001488D01*
X002982Y001330D02*
X008433Y001330D01*
X008287Y001488D02*
X007901Y001488D01*
X008035Y001647D02*
X008153Y001647D01*
X008094Y001805D02*
X008094Y001805D01*
X008094Y001964D02*
X008094Y001964D01*
X008094Y002122D02*
X008094Y002122D01*
X008094Y002281D02*
X008094Y002281D01*
X008094Y002439D02*
X008094Y002439D01*
X008090Y002598D02*
X008098Y002598D01*
X008164Y002756D02*
X008024Y002756D01*
X007872Y002915D02*
X008316Y002915D01*
X007855Y003073D02*
X009334Y003073D01*
X009334Y003232D02*
X007855Y003232D01*
X007855Y003390D02*
X009334Y003390D01*
X009334Y003549D02*
X007855Y003549D01*
X007855Y003707D02*
X009334Y003707D01*
X009334Y003866D02*
X007855Y003866D01*
X007855Y004024D02*
X009334Y004024D01*
X009334Y004183D02*
X007965Y004183D01*
X008769Y004341D02*
X009334Y004341D01*
X009334Y004500D02*
X008927Y004500D01*
X009061Y004658D02*
X009334Y004658D01*
X009334Y004817D02*
X009083Y004817D01*
X009083Y004975D02*
X009334Y004975D01*
X009334Y005134D02*
X009083Y005134D01*
X009083Y005292D02*
X009334Y005292D01*
X009334Y005451D02*
X009083Y005451D01*
X009083Y005609D02*
X009334Y005609D01*
X009334Y005768D02*
X009083Y005768D01*
X009083Y005926D02*
X009334Y005926D01*
X009334Y006085D02*
X009083Y006085D01*
X009083Y006243D02*
X009334Y006243D01*
X009334Y006402D02*
X009083Y006402D01*
X009083Y006560D02*
X009334Y006560D01*
X009334Y006719D02*
X009083Y006719D01*
X009083Y006877D02*
X009334Y006877D01*
X009334Y007036D02*
X009083Y007036D01*
X008339Y007036D02*
X005353Y007036D01*
X005353Y007060D02*
X005781Y007060D01*
X005898Y007177D01*
X005898Y007199D01*
X005937Y007199D01*
X006033Y007239D01*
X006106Y007312D01*
X006372Y007578D01*
X006586Y007578D01*
X006477Y007469D01*
X006477Y007183D01*
X006594Y007066D01*
X007703Y007066D01*
X007798Y007106D01*
X007947Y007255D01*
X008020Y007328D01*
X008060Y007423D01*
X008060Y008826D01*
X008245Y008641D01*
X008340Y008602D01*
X008839Y008602D01*
X008839Y008463D01*
X008952Y008350D01*
X008946Y008344D01*
X008751Y008344D01*
X008659Y008306D01*
X008447Y008094D01*
X008377Y008024D01*
X008339Y007932D01*
X008339Y004959D01*
X008318Y004938D01*
X006649Y004938D01*
X006649Y004966D01*
X006532Y005083D01*
X005972Y005083D01*
X005917Y005028D01*
X005862Y005083D01*
X005353Y005083D01*
X005353Y007060D01*
X005353Y006877D02*
X008339Y006877D01*
X008339Y006719D02*
X005353Y006719D01*
X005353Y006560D02*
X008339Y006560D01*
X008339Y006402D02*
X005353Y006402D01*
X005353Y006243D02*
X008339Y006243D01*
X008339Y006085D02*
X005353Y006085D01*
X005353Y005926D02*
X008339Y005926D01*
X008339Y005768D02*
X005353Y005768D01*
X005353Y005609D02*
X008339Y005609D01*
X008339Y005451D02*
X005353Y005451D01*
X005353Y005292D02*
X008339Y005292D01*
X008339Y005134D02*
X005353Y005134D01*
X006640Y004975D02*
X008339Y004975D01*
X010367Y004975D02*
X015368Y004975D01*
X015368Y004817D02*
X010367Y004817D01*
X010367Y004658D02*
X015368Y004658D01*
X015368Y004500D02*
X010367Y004500D01*
X010367Y004341D02*
X015368Y004341D01*
X015368Y004183D02*
X010367Y004183D01*
X010367Y004024D02*
X015368Y004024D01*
X015368Y003866D02*
X010367Y003866D01*
X010367Y003707D02*
X015368Y003707D01*
X015368Y003549D02*
X010367Y003549D01*
X010367Y003390D02*
X015368Y003390D01*
X015368Y003232D02*
X010367Y003232D01*
X010367Y003073D02*
X015368Y003073D01*
X015368Y002915D02*
X014989Y002915D01*
X015224Y002756D02*
X015368Y002756D01*
X013798Y002915D02*
X010367Y002915D01*
X010367Y002756D02*
X013562Y002756D01*
X013404Y002598D02*
X010367Y002598D01*
X010367Y002439D02*
X013302Y002439D01*
X013211Y002281D02*
X010367Y002281D01*
X010367Y002122D02*
X013169Y002122D01*
X013126Y001964D02*
X010367Y001964D01*
X010367Y001805D02*
X013126Y001805D01*
X013126Y001647D02*
X010367Y001647D01*
X010276Y001488D02*
X013163Y001488D01*
X013206Y001330D02*
X010117Y001330D01*
X010254Y001466D02*
X010254Y001466D01*
X009094Y001805D02*
X009094Y001805D01*
X009094Y001964D02*
X009094Y001964D01*
X009094Y002122D02*
X009094Y002122D01*
X009094Y002281D02*
X009094Y002281D01*
X009094Y002439D02*
X009094Y002439D01*
X009090Y002598D02*
X009098Y002598D01*
X009164Y002756D02*
X009024Y002756D01*
X008872Y002915D02*
X009316Y002915D01*
X010367Y005134D02*
X015368Y005134D01*
X015368Y005292D02*
X010367Y005292D01*
X010367Y005451D02*
X015368Y005451D01*
X015368Y005609D02*
X010367Y005609D01*
X010367Y005768D02*
X015368Y005768D01*
X015368Y005926D02*
X010367Y005926D01*
X010367Y006085D02*
X015368Y006085D01*
X015368Y006243D02*
X010367Y006243D01*
X010367Y006402D02*
X015368Y006402D01*
X015368Y006560D02*
X010367Y006560D01*
X010367Y006719D02*
X015368Y006719D01*
X015368Y006877D02*
X010367Y006877D01*
X010367Y007036D02*
X015368Y007036D01*
X015368Y007194D02*
X010367Y007194D01*
X010367Y007353D02*
X015368Y007353D01*
X015368Y007511D02*
X010367Y007511D01*
X010338Y007670D02*
X015368Y007670D01*
X015368Y007828D02*
X010194Y007828D01*
X010036Y007987D02*
X015368Y007987D01*
X015368Y008145D02*
X009711Y008145D01*
X009645Y008304D02*
X015368Y008304D01*
X015368Y008462D02*
X009889Y008462D01*
X010031Y008621D02*
X015368Y008621D01*
X015368Y008779D02*
X010059Y008779D01*
X010059Y008938D02*
X015368Y008938D01*
X015368Y009096D02*
X010052Y009096D01*
X009946Y009247D02*
X009946Y009247D01*
X009939Y009255D02*
X015368Y009255D01*
X015368Y009413D02*
X009780Y009413D01*
X008859Y009572D02*
X015368Y009572D01*
X015368Y009730D02*
X008701Y009730D01*
X008542Y009889D02*
X015368Y009889D01*
X015368Y010047D02*
X008384Y010047D01*
X008225Y010206D02*
X015368Y010206D01*
X015368Y010364D02*
X008067Y010364D01*
X007908Y010523D02*
X015368Y010523D01*
X015368Y010681D02*
X007856Y010681D01*
X007856Y010840D02*
X015368Y010840D01*
X015368Y010998D02*
X007856Y010998D01*
X007856Y011157D02*
X015368Y011157D01*
X015368Y011315D02*
X007856Y011315D01*
X007856Y011474D02*
X015368Y011474D01*
X015368Y011632D02*
X007856Y011632D01*
X007856Y011791D02*
X015368Y011791D01*
X015368Y011949D02*
X007856Y011949D01*
X007856Y012108D02*
X015368Y012108D01*
X015368Y012266D02*
X007856Y012266D01*
X007856Y012425D02*
X015368Y012425D01*
X015368Y012583D02*
X007856Y012583D01*
X007856Y012742D02*
X015368Y012742D01*
X015368Y012900D02*
X007856Y012900D01*
X007856Y013059D02*
X015368Y013059D01*
X015368Y013217D02*
X014891Y013217D01*
X015165Y013376D02*
X015368Y013376D01*
X015368Y013534D02*
X015326Y013534D01*
X013896Y013217D02*
X008736Y013217D01*
X008452Y013217D02*
X007856Y013217D01*
X007977Y013376D02*
X008211Y013376D01*
X008121Y013534D02*
X008067Y013534D01*
X008094Y013600D02*
X008094Y014399D01*
X008056Y014491D01*
X008132Y014491D01*
X008094Y014399D01*
X008094Y013600D01*
X008094Y013693D02*
X008094Y013693D01*
X008094Y013851D02*
X008094Y013851D01*
X008094Y014010D02*
X008094Y014010D01*
X008094Y014168D02*
X008094Y014168D01*
X008094Y014327D02*
X008094Y014327D01*
X008058Y014485D02*
X008130Y014485D01*
X008628Y014961D02*
X013257Y014961D01*
X013191Y014802D02*
X008787Y014802D01*
X008957Y014644D02*
X013148Y014644D01*
X013126Y014485D02*
X009058Y014485D01*
X009094Y014327D02*
X013126Y014327D01*
X013141Y014168D02*
X009094Y014168D01*
X009094Y014010D02*
X013184Y014010D01*
X013243Y013851D02*
X009094Y013851D01*
X009094Y013693D02*
X013334Y013693D01*
X013460Y013534D02*
X009067Y013534D01*
X008977Y013376D02*
X013621Y013376D01*
X013349Y015119D02*
X002839Y015119D01*
X002931Y014961D02*
X006160Y014961D01*
X006002Y014802D02*
X002997Y014802D01*
X003040Y014644D02*
X005231Y014644D01*
X005130Y014485D02*
X003062Y014485D01*
X003062Y014327D02*
X005094Y014327D01*
X005094Y014168D02*
X003047Y014168D01*
X002703Y015278D02*
X013485Y015278D01*
X007197Y009096D02*
X005353Y009096D01*
X005353Y009101D02*
X005831Y009579D01*
X005874Y009682D01*
X005874Y010439D01*
X005888Y010404D01*
X005962Y010331D01*
X007540Y008753D01*
X007540Y007586D01*
X007240Y007586D01*
X007349Y007695D01*
X007349Y008237D01*
X007232Y008354D01*
X007017Y008354D01*
X006969Y008374D01*
X005902Y008374D01*
X005902Y008393D01*
X005784Y008510D01*
X005353Y008510D01*
X005353Y009101D01*
X005353Y008938D02*
X007355Y008938D01*
X007514Y008779D02*
X005353Y008779D01*
X005353Y008621D02*
X007540Y008621D01*
X007540Y008462D02*
X005832Y008462D01*
X005505Y008094D02*
X005070Y008094D01*
X005073Y008092D01*
X005505Y008094D02*
X005505Y008093D01*
X005505Y008094D02*
X006913Y008094D01*
X006913Y008350D02*
X007384Y008350D01*
X007450Y008283D01*
X007450Y007636D01*
X007498Y007589D01*
X006919Y007589D01*
X006913Y007582D01*
X006380Y007582D01*
X006302Y007505D01*
X006305Y007511D02*
X006519Y007511D01*
X006477Y007353D02*
X006146Y007353D01*
X005898Y007194D02*
X006477Y007194D01*
X007323Y007670D02*
X007540Y007670D01*
X007540Y007828D02*
X007349Y007828D01*
X007349Y007987D02*
X007540Y007987D01*
X007540Y008145D02*
X007349Y008145D01*
X007282Y008304D02*
X007540Y008304D01*
X008060Y008304D02*
X008657Y008304D01*
X008498Y008145D02*
X008060Y008145D01*
X008060Y007987D02*
X008361Y007987D01*
X008339Y007828D02*
X008060Y007828D01*
X008060Y007670D02*
X008339Y007670D01*
X008339Y007511D02*
X008060Y007511D01*
X008031Y007353D02*
X008339Y007353D01*
X008339Y007194D02*
X007887Y007194D01*
X008060Y008462D02*
X008840Y008462D01*
X008295Y008621D02*
X008060Y008621D01*
X008060Y008779D02*
X008107Y008779D01*
X007038Y009255D02*
X005506Y009255D01*
X005665Y009413D02*
X006880Y009413D01*
X006721Y009572D02*
X005823Y009572D01*
X005874Y009730D02*
X006563Y009730D01*
X006404Y009889D02*
X005874Y009889D01*
X005874Y010047D02*
X006246Y010047D01*
X006087Y010206D02*
X005874Y010206D01*
X005874Y010364D02*
X005929Y010364D01*
X001199Y002915D02*
X000820Y002915D01*
X000820Y002756D02*
X000964Y002756D01*
X002898Y001171D02*
X013290Y001171D01*
X013383Y001013D02*
X002805Y001013D01*
X002646Y000854D02*
X013542Y000854D01*
D19*
X008589Y004855D02*
X008422Y004688D01*
X006274Y004688D01*
X006252Y004667D01*
X008589Y004855D02*
X008589Y007882D01*
X008801Y008094D01*
X009275Y008094D01*
M02*
